<?xml version="1.0" encoding="utf-8"?>
<!-- Generator: Adobe Illustrator 15.1.0, SVG Export Plug-In . SVG Version: 6.00 Build 0)  -->
<!DOCTYPE svg PUBLIC "-//W3C//DTD SVG 1.1//EN" "http://www.w3.org/Graphics/SVG/1.1/DTD/svg11.dtd">
<svg version="1.1" id="レイヤー_1" xmlns="http://www.w3.org/2000/svg" xmlns:xlink="http://www.w3.org/1999/xlink" x="0px"
	 y="0px" width="302px" height="58.001px" viewBox="0 0 302 58.001" enable-background="new 0 0 302 58.001" xml:space="preserve">
<g>
	<path fill="#0079C2" d="M83.792,44.688h-6.576v-0.86h6.576V44.688z M88.163,51.312c-1.752-0.283-2.972-0.613-4.446-1.443h3.552
		V38.867h-13.45v11.001h3.397c-0.685,0.426-2.569,1.115-5.202,1.443l1.424,2.975c1.831-0.432,4.155-1.237,5.961-2.663l-1.686-1.755
		h5.301l-1.687,1.897c1.515,1.144,3.277,2.023,5.271,2.591L88.163,51.312z M83.792,41.907h-6.576V41.05h6.576V41.907z
		 M83.792,47.581h-6.576v-0.852h6.576V47.581z M86.879,32.262H74.295v5.725h12.584V32.262z M73.083,41.287
		c-0.881,0.334-1.166,0.431-1.689,0.599v-3.043h1.896v-3.398h-1.896v-3.852h-3.447v3.852h-2.494v3.398h2.494v4.064
		c-1.168,0.304-1.66,0.421-2.613,0.613l0.431,3.637c0.877-0.237,1.235-0.334,2.183-0.615v3.225c0,0.691-0.07,0.717-0.811,0.717
		h-1.539l0.527,3.684h2.77c2.384,0,2.5-1.33,2.5-2.214v-6.579c0.898-0.332,0.995-0.357,1.773-0.642L73.083,41.287z M83.372,35.848
		h-5.638v-1.162h5.638V35.848z"/>
	<path fill="#0079C4" d="M93.47,35.636h5.25v1.137h-5.25V35.636z M92.02,38.963h6.7v0.874h-7.226v1.855h7.226v0.902h-9.548v2.779
		h22.642v-2.779h-9.529v-0.902h7.201v-1.855h-7.201v-0.874h6.679v-0.45h2.259v-5.778h-8.839V31.38h-3.779v1.354h-8.843v5.778h2.259
		V38.963z M102.285,35.636h5.272v1.137h-5.272V35.636z M91.495,54.141h3.826v-0.806h10.438v0.806h3.7v-7.887H91.495V54.141z
		 M95.321,48.937h10.438v1.547H95.321V48.937z"/>
	<path fill="#0079C4" d="M130.786,37.583h-6.868v-2.308h6.868V37.583z M120.398,53.308c0.831-0.543,2.591-1.66,5.227-5.227v5.992
		h3.373v-6.154c1.803,3.082,3.848,4.822,4.711,5.559l2.083-3.184c-1.274-0.905-3.159-2.331-4.915-4.988h4.518v-3.255h-6.396v-1.519
		h5.298v-8.297h-13.873v8.297h5.202v1.519h-6.416v3.255h4.633c-1.709,2.352-3.23,3.539-5.486,4.865L120.398,53.308z M114.6,54.073
		h3.403v-16.49c0.921-2.826,1.205-4.709,1.371-5.799l-3.491-0.305c-0.118,0.848-0.307,2.23-1.021,4.176
		c-0.832,2.214-1.733,3.399-2.307,4.182l0.933,5.154c0.569-0.547,0.732-0.734,1.112-1.186V54.073z"/>
	<path fill="#0079C4" d="M153.222,43.065h2.105v2.19h-2.258c0.075-0.427,0.152-0.899,0.152-1.519V43.065z M144.632,32.188h-7.238
		v21.908h3.084V40.792c1.025,1.094,1.615,2.449,1.615,3.921c0,1.45-0.469,1.541-0.943,1.541h-0.645l0.662,3.448h0.877
		c2.518,0,2.857-1.855,2.857-3.809c0-3.082-1.097-4.814-1.597-5.604c0.453-1.279,0.571-1.688,0.906-3.084l0.832,1.681
		c0.809-0.328,1.24-0.519,2.089-1.018v1.447h2.944v1.189h-4.989v7.529h3.682c-1.662,2.381-4.491,2.9-5.508,3.066l1.618,3.161
		c1.305-0.408,4.603-1.426,6.742-4.844c0.931,1.564,2.785,3.705,6.51,4.89l1.541-3.325c-3.036-0.736-4.179-1.735-5.214-2.948h4.002
		v-7.529h-5.238v-1.189h3.035v-1.521c0.773,0.453,1.242,0.688,1.994,1.071l1.496-3.159c-2.402-0.951-4.703-2.403-6.199-4.115h-3.508
		c-1.814,2.07-4.471,3.354-5.408,3.779V32.188z M150.077,43.619c0,0.757-0.096,1.329-0.158,1.637h-1.746v-2.19h1.904V43.619z
		 M141.947,35.416c-0.162,1.169-0.85,3.853-1.469,5.28v-5.28H141.947z M149.275,36.442c1.517-1.167,1.94-1.641,2.47-2.28
		c0.665,0.712,1.325,1.376,2.52,2.28H149.275z"/>
	<path fill="#0079C4" d="M169.805,46.663l-0.943,2.105c-0.367-0.546-0.675-1.016-1.289-2.32v7.668h-3.418v-7.293
		c-1.009,2.047-1.88,3.189-2.903,4.373l-1.187-4.248c1.096-0.858,2.312-2.119,3.731-4.877h-3.283v-3.255h3.642v-7.224h3.418v7.224
		h3.299v1.948l2.048-2.354c1.468,0.906,2.733,1.904,4.005,3.263l-2.456,2.611c-1.504-1.855-2.906-2.829-3.597-3.258v1.045h-3.062
		c0.231,0.479,1.052,1.901,2.535,3.349l-0.209,0.474l7.304-1.417v-8.485l-2.126,2.377c-1.142-1.406-2.06-2.335-3.752-3.521
		l2.183-2.351c1.362,0.832,2.597,1.808,3.695,2.99v-3.94h3.674v12.212l1.695-0.33l0.301,3.52l-1.996,0.398v6.703h-3.674v-5.99
		l-7.246,1.403L169.805,46.663z M162.606,32.455c0.478,1.276,0.98,3.032,1.19,4.604l-2.501,1.021
		c-0.135-1.781-0.438-3.183-1.111-4.918L162.606,32.455z M171.768,33.044c-0.349,1.804-1.06,3.751-1.679,5.062l-2.377-1.066
		c0.573-1.307,1.097-3.257,1.304-4.636L171.768,33.044z"/>
	<path fill="#0079C4" d="M197.305,45.59c1.069-0.073,1.536-0.099,1.778-0.116c0.195,0.447,0.237,0.589,0.429,1.089l2.708-1.521
		c-0.142-0.31-0.172-0.403-0.26-0.62c1.707,1.288,2.259,1.906,2.685,2.36h-7.34V45.59z M184.234,46.782v3.273h9.503v4.111h3.568
		v-4.111h9.548v-3.273h-2.123l2.172-2.545c-1.948-1.643-2.443-2.021-4.777-3.42c0.529-0.218,2.847-1.289,4.584-2.643l-2.164-2.422
		h1.907v-2.971h-9.058v-1.281h-3.643v1.281h-8.968v2.971h1.826l-1.726,2.52c1.185,0.595,2.651,1.4,4.052,2.655l1.188-1.567
		c1.162,0.723,1.786,1.218,3.117,2.312c-0.725,0.803-0.932,1.018-1.397,1.515h-0.642l-0.557-2.468
		c-1.962,1.14-4.129,2.115-6.248,2.899l1.062,3.163H184.234z M185.577,46.782c1.841-0.861,3.387-1.645,4.761-2.482l0.175,1.697
		c2.158-0.117,2.397-0.148,3.225-0.174v0.959H185.577z M197.348,36.132c-0.854,1.285-1.377,2.025-2.212,3.137
		c-0.333-0.258-0.402-0.334-0.906-0.735c0.481-0.596,1.182-1.474,1.96-2.78h8.169c-1.47,1.188-3.137,2.043-4.041,2.472l1.643,2.517
		l-1.234,1.454c-0.476-0.786-0.622-1.049-1.147-1.787l-2.465,1.358c0.359,0.545,0.434,0.687,0.735,1.206
		c-1.239,0.046-1.382,0.07-2.438,0.093c2.65-2.701,3.649-3.894,4.773-5.389L197.348,36.132z M190.512,37.958
		c-1.406-0.971-1.477-0.996-3.734-2.205h5.913c-0.188,0.379-0.266,0.547-0.714,1.209c-0.251-0.167-0.282-0.167-0.519-0.312
		L190.512,37.958z"/>
	<path fill="#0079C4" d="M224.993,39.859h-11.315v-0.872h11.315V39.859z M225.818,37.039l1.775-0.363
		c-0.157-0.448-0.512-1.021-0.657-1.26h3.569v-2.919h-6.129c0.094-0.235,0.111-0.334,0.228-0.713l-3.557-0.377
		c-0.247,0.636-0.761,2.042-2.119,3.568v-2.479h-4.268c0.101-0.262,0.135-0.334,0.298-0.688l-3.729-0.382
		c-0.777,1.735-1.996,2.942-3.438,4.06l2.374,2.336v9.215h3.923c-0.034,0.309-0.053,0.401-0.104,0.783h-5.915v2.8h4.547
		c-1.016,0.641-2.528,0.909-3.855,1.145l1.404,2.735c1.161-0.265,3.889-0.838,5.812-2.764c0.314-0.304,0.549-0.754,0.745-1.116
		h4.701v3.495h3.592v-3.495h5.531v-2.8h-5.531v-0.783h3.465v-9.999H225.818z M224.993,42.38h-11.315v-0.854h11.315V42.38z
		 M224.993,44.948h-11.315v-0.904h11.315V44.948z M211.372,37.039c0.478-0.478,0.815-0.833,1.429-1.623h0.235
		c0.19,0.509,0.361,0.884,0.581,1.623H211.372z M215.061,37.039l1.916-0.39c-0.19-0.518-0.422-1.037-0.495-1.233h2.021l-0.116,0.122
		l2.139,1.501H215.061z M221.681,37.039c0.312-0.363,0.603-0.671,1.217-1.623h0.331c0.214,0.452,0.283,0.594,0.714,1.623H221.681z
		 M221.424,47.821h-3.981c0.034-0.424,0.034-0.539,0.066-0.783h3.915V47.821z"/>
	<polygon fill="#0079C4" points="233.558,33.139 237.167,33.139 237.167,38.91 241.22,38.91 241.22,31.668 244.856,31.668 
		244.856,38.91 248.998,38.91 248.998,33.139 252.573,33.139 252.573,42.312 244.856,42.312 244.856,49.66 249.828,49.66 
		249.828,43.737 253.436,43.737 253.436,54.167 249.828,54.167 249.828,53.079 236.358,53.079 236.358,54.167 232.723,54.167 
		232.723,43.737 236.358,43.737 236.358,49.66 241.22,49.66 241.22,42.312 233.558,42.312 	"/>
	<path fill="#0079C4" d="M264.254,39.461c1.233-1.261,2.419-2.853,3.537-4.327c0.044,2.186,0.193,3.801,0.318,4.988
		c-0.371-1.379-0.504-1.777-0.769-2.391l-1.786,0.373c0.118,0.306,0.199,0.454,0.384,1.285L264.254,39.461z M268.957,47.963
		c-0.427-0.261-1.218-0.731-3.16-1.208c0-0.143,0.018-0.691,0.048-1.022h3.014c0.396,2.04,0.952,3.656,1.103,4.089
		c-1.811,1.091-3.16,1.375-3.966,1.566l1.253,2.78c0.822-0.261,2.097-0.673,4.066-1.873c1.186,1.494,2.181,1.917,3.317,1.917
		c2.147,0,3.14-1.828,3.743-2.965l-1.579-2.875c-0.214,0.473-1.322,2.586-2.115,2.586c-0.14,0-0.523-0.092-0.845-0.572
		c1.853-1.642,2.534-2.896,2.916-3.562l-2.495-1.091h3.815v-3.021h-2.079c-0.165-0.4-0.451-1.091-0.852-1.759
		c0.497-0.067,0.801-0.092,1.143-0.136c0.017,0.11,0.086,0.52,0.132,0.781l1.925-0.52c-0.305-1.333-0.659-2.786-1.14-3.902
		l-1.755,0.452c0.146,0.382,0.217,0.571,0.382,1.146c-0.979,0.093-1.452,0.136-1.91,0.16c1.339-1.352,2.291-2.707,3.671-4.732
		l-2.047-0.805c-0.364,0.57-0.665,1.068-1.333,1.955c-0.143-0.219-0.266-0.336-0.543-0.689c0.445-0.577,1.183-1.693,1.757-2.668
		l-2.283-0.541c-0.168,0.33-0.354,0.781-0.974,1.685c-0.124-0.122-0.156-0.14-0.355-0.327l-0.903,1.351
		c-0.03-1.163,0-1.953,0.022-2.586h-3.19c0,0.921,0,1.636,0.03,2.558l-1.473-0.685c-0.256,0.428-0.5,0.805-1.215,1.805
		c-0.304-0.38-0.426-0.478-0.562-0.638c0.28-0.362,1.104-1.478,1.709-2.549l-2.29-0.521c-0.16,0.356-0.352,0.767-1,1.714
		c-0.062-0.049-0.351-0.262-0.395-0.311l-1.354,2.162c0.304,0.24,0.407,0.304,0.596,0.476h-1.095v-3.995h-3.071v3.995h-2.041v3.229
		h1.925c-0.158,0.83-0.922,3.826-2.254,5.916l1.047,5.063c0.328-0.642,0.832-1.593,1.323-3.326v7.646h3.071v-8.91
		c0.445,0.957,0.574,1.122,0.878,1.549l0.573-2.398v1.376h0.566c-0.098,3.536-0.476,4.798-1.472,6.317l2.521,2.162
		c0.762-1.023,1.545-2.305,1.85-4.749c1.359,0.476,1.923,0.876,2.351,1.235L268.957,47.963z M271.23,39.028
		c-0.203-2.041-0.252-3.061-0.277-3.612c0.375,0.358,1.234,1.192,1.781,1.883c-0.322,0.433-0.662,0.858-1.42,1.729H271.23z
		 M261.827,41.718c0.854-0.045,4.234-0.381,4.545-0.402c0.019,0.162,0.044,0.256,0.113,0.804l1.76-0.401
		c0.021,0.281,0.046,0.401,0.117,0.994h-6.177c-0.634-0.713-1.188-1.547-1.494-2.044v-1.852h1.329v-3.011
		c0.427,0.4,0.856,0.803,1.524,1.535c-0.447,0.577-1.12,1.434-1.692,2.091h-0.301l0.046,0.314L261.827,41.718z M271.642,42.712
		c-0.072-0.475-0.143-0.994-0.172-1.446c0.291-0.022,0.571-0.052,1.242-0.101c0.14,0.244,0.542,1.03,0.811,1.547H271.642z
		 M274.185,45.732c-0.641,0.974-0.83,1.257-1.608,2.04c-0.196-0.639-0.348-1.35-0.457-2.04H274.185z"/>
	<path fill="#0079C4" d="M292.61,47.938h-1.933v-1.069h1.933V47.938z M286.631,41.102h5.979v0.784h-5.033v6.053h-1.368v2.545h1.368
		v3.633h3.101v-3.633h6.916v0.5c0,0.429-0.168,0.496-0.657,0.496h-2.431l0.336,2.637h4.052c0.364,0,1.054-0.209,1.435-0.621
		c0.208-0.209,0.398-0.754,0.398-1.322v-1.689h1.119v-2.545h-1.119v-6.053h-5.01v-0.784h6.129v-2.405h-3.209v-0.852h2.049v-1.949
		h-2.049v-0.854h2.66v-2.545h-2.66v-0.95H295.6v0.95h-2.88v-0.95h-2.991v0.95h-2.709v2.545h2.709v0.854h-2.152v1.949h2.152v0.852
		h-3.112v-3.176h-1.643v-3.974h-3.279v3.974h-2.347v3.254h2.112c-0.519,3.32-1.664,5.126-2.608,6.381l1.141,5.016
		c0.454-0.641,1.084-1.59,1.702-3.799v7.744h3.279v-9.64c0.574,1.085,0.745,1.347,1.122,1.916l1.311-3.375
		c-1.22-1.183-1.782-1.991-2.433-3.271v-0.972h1.657V41.102z M292.61,45.116h-1.933v-1.045h1.933V45.116z M297.593,45.116h-1.877
		v-1.045h1.877V45.116z M297.593,47.938h-1.877v-1.069h1.877V47.938z M295.6,35.896h-2.88v-0.854h2.88V35.896z M295.6,38.696h-2.88
		v-0.9h2.88V38.696z"/>
	<path fill="#717070" d="M70.332,10.072v0.162c0,1.959,0.286,5.383-2.446,5.383c-2.435,0-2.718-2.338-2.718-5.232
		c0-2.867,0.229-5.286,2.595-5.286c1.455,0,2.148,0.734,2.501,2.093l-1.29,0.529c-0.14-0.679-0.329-1.346-1.171-1.346
		c-1.115,0-1.197,1.521-1.197,3.994c0,3.562,0.601,3.972,1.197,3.972c0.558,0,1.171-0.083,1.171-2.528v-0.557H67.83v-1.184H70.332z"
		/>
	<path fill="#717070" d="M72.546,12.3c0,0.57-0.027,2.148,0.801,2.148c0.681,0,0.801-0.748,0.801-1.279h1.186
		c0,1.266-0.557,2.42-1.996,2.42c-1.917,0-2.094-2.037-2.094-3.492c0-1.4,0.16-3.588,2.051-3.588c1.862,0,2.081,2.174,2.081,3.588
		V12.3H72.546z M74.068,11.39c0-0.529,0-1.738-0.773-1.738c-0.8,0-0.748,1.209-0.748,1.738H74.068z"/>
	<path fill="#717070" d="M77.63,9.406h0.026c0.287-0.557,0.707-0.896,1.386-0.896c1.36,0,1.401,1.209,1.401,2.255v4.718h-1.276
		v-4.744c0-0.477-0.082-1.086-0.764-1.086c-0.841,0-0.773,0.963-0.773,1.549v4.281h-1.276V8.617h1.276V9.406z"/>
	<path fill="#717070" d="M82.728,12.3c0,0.57-0.027,2.148,0.801,2.148c0.681,0,0.805-0.748,0.805-1.279h1.178
		c0,1.266-0.553,2.42-1.996,2.42c-1.916,0-2.091-2.037-2.091-3.492c0-1.4,0.161-3.588,2.051-3.588c1.862,0,2.079,2.174,2.079,3.588
		V12.3H82.728z M84.251,11.39c0-0.529,0-1.738-0.776-1.738c-0.801,0-0.747,1.209-0.747,1.738H84.251z"/>
	<path fill="#717070" d="M87.812,9.46h0.025c0.3-0.599,0.748-0.95,1.457-0.95v1.262l-0.216-0.013c-0.953,0-1.251,0.529-1.251,1.4
		v4.321h-1.291V8.617h1.275V9.46z"/>
	<path fill="#717070" d="M92.895,14.599H92.87c-0.261,0.596-0.532,0.99-1.267,0.99c-1.588,0-1.616-2.514-1.616-3.629
		c0-1.142,0.041-3.45,1.657-3.45c0.6,0,0.994,0.366,1.226,0.868h0.025V8.617h1.276v6.864h-1.276V14.599z M92.935,12.042
		c0-0.545,0.056-2.392-0.801-2.392c-0.951,0-0.842,1.834-0.842,2.392c0,0.57-0.109,2.405,0.842,2.405
		C92.991,14.448,92.935,12.585,92.935,12.042"/>
	<rect x="95.343" y="4.2" fill="#717070" width="1.277" height="11.282"/>
	<rect x="100.823" y="5.235" fill="#717070" width="1.356" height="10.247"/>
	<path fill="#717070" d="M104.885,9.406h0.027c0.284-0.557,0.706-0.896,1.386-0.896c1.358,0,1.398,1.209,1.398,2.255v4.718h-1.276
		v-4.744c0-0.477-0.083-1.086-0.761-1.086c-0.844,0-0.774,0.963-0.774,1.549v4.281h-1.277V8.617h1.277V9.406z"/>
	<path fill="#717070" d="M111.462,10.017c-0.244-0.217-0.636-0.365-0.951-0.365c-0.475,0-0.868,0.271-0.868,0.732
		c0.026,1.154,2.147,1.211,2.147,3.168c0,1.207-0.748,2.037-1.972,2.037c-0.449,0-0.734-0.095-1.114-0.326v-1.25
		c0.324,0.258,0.627,0.436,1.059,0.436c0.557,0,0.857-0.34,0.857-0.87c0-1.21-2.148-1.291-2.148-3.194
		c0-1.088,0.749-1.875,1.838-1.875c0.435,0,0.785,0.082,1.152,0.299V10.017z"/>
	<path fill="#717070" d="M113.911,8.617v4.295c0,0.613-0.081,1.51,0.786,1.51c0.857,0,0.762-0.828,0.762-1.442V8.617h1.277v4.636
		c0,1.413-0.421,2.338-1.983,2.338c-1.861,0-2.119-1.045-2.119-2.611V8.617H113.911z"/>
	<path fill="#717070" d="M119.197,9.46h0.027c0.301-0.599,0.749-0.95,1.455-0.95v1.262l-0.217-0.013c-0.952,0-1.252,0.529-1.252,1.4
		v4.321h-1.288V8.617h1.274V9.46z"/>
	<path fill="#717070" d="M124.281,14.599h-0.027c-0.256,0.596-0.528,0.99-1.26,0.99c-1.594,0-1.619-2.514-1.619-3.629
		c0-1.142,0.041-3.45,1.657-3.45c0.598,0,0.992,0.366,1.222,0.868h0.027V8.617h1.278v6.864h-1.278V14.599z M124.322,12.042
		c0-0.545,0.056-2.392-0.8-2.392c-0.954,0-0.844,1.834-0.844,2.392c0,0.57-0.11,2.405,0.844,2.405
		C124.377,14.448,124.322,12.585,124.322,12.042"/>
	<path fill="#717070" d="M128.019,9.406h0.027c0.287-0.557,0.707-0.896,1.388-0.896c1.359,0,1.399,1.209,1.399,2.255v4.718h-1.277
		v-4.744c0-0.477-0.081-1.086-0.762-1.086c-0.841,0-0.775,0.963-0.775,1.549v4.281h-1.275V8.617h1.275V9.406z"/>
	<path fill="#717070" d="M134.87,10.031h-0.026c-0.135-0.205-0.314-0.312-0.598-0.326c-1.102,0.014-1.127,1.551-1.127,2.283
		c0,0.693,0.025,2.406,1.1,2.406c0.286,0,0.449-0.109,0.651-0.259v1.183c-0.327,0.191-0.651,0.272-1.032,0.272
		c-1.809,0-2.025-2.12-2.025-3.481c0-1.412,0.163-3.6,2.038-3.6c0.381,0,0.679,0.068,1.02,0.23V10.031z"/>
	<path fill="#717070" d="M136.896,12.3c0,0.57-0.026,2.148,0.801,2.148c0.682,0,0.805-0.748,0.805-1.279h1.182
		c0,1.266-0.557,2.42-1.997,2.42c-1.916,0-2.094-2.037-2.094-3.492c0-1.4,0.161-3.588,2.052-3.588c1.862,0,2.081,2.174,2.081,3.588
		V12.3H136.896z M138.417,11.39c0-0.529,0-1.738-0.773-1.738c-0.802,0-0.748,1.209-0.748,1.738H138.417z"/>
	<path fill="#717070" d="M143.721,5.234h1.629c0.993,0,2.542,0.053,2.542,2.623c0,0.965-0.284,2.432-1.413,2.635l1.891,4.99h-1.416
		l-1.848-5.016h-0.027v5.016h-1.357V5.234z M146.454,8.156c0-0.979-0.122-1.795-1.159-1.767h-0.216v3.382
		C146.099,9.841,146.454,9.189,146.454,8.156"/>
	<path fill="#717070" d="M151.847,14.599h-0.024c-0.26,0.596-0.53,0.99-1.265,0.99c-1.592,0-1.618-2.514-1.618-3.629
		c0-1.142,0.04-3.45,1.658-3.45c0.598,0,0.992,0.366,1.225,0.868h0.024V8.617h1.278v6.864h-1.278V14.599z M151.888,12.042
		c0-0.545,0.057-2.392-0.8-2.392c-0.954,0-0.844,1.834-0.844,2.392c0,0.57-0.11,2.405,0.844,2.405
		C151.945,14.448,151.888,12.585,151.888,12.042"/>
	<polygon fill="#717070" points="155.846,6.673 155.846,8.617 156.525,8.617 156.525,9.623 155.846,9.623 155.846,15.482 
		154.567,15.482 154.567,9.623 153.875,9.623 153.875,8.617 154.567,8.617 154.567,6.673 	"/>
	<path fill="#717070" d="M157.095,6.538c0-0.462,0.381-0.841,0.858-0.841c0.446,0,0.841,0.379,0.841,0.841
		c0,0.476-0.395,0.856-0.841,0.856C157.476,7.394,157.095,7.013,157.095,6.538 M158.579,15.482h-1.277V8.618h1.277V15.482z"/>
	<path fill="#717070" d="M161.037,9.406h0.027c0.286-0.557,0.707-0.896,1.39-0.896c1.354,0,1.397,1.209,1.397,2.255v4.718h-1.275
		v-4.744c0-0.477-0.086-1.086-0.764-1.086c-0.842,0-0.775,0.963-0.775,1.549v4.281h-1.277V8.617h1.277V9.406z"/>
	<path fill="#717070" d="M169.042,15.536c0,2.446-0.731,2.868-2.092,2.868c-1.236,0-2.024-0.707-2.024-1.985v-0.19h1.235
		c-0.027,0.489,0.176,1.032,0.817,1.032c0.854,0,0.771-0.829,0.771-1.452v-1.142h-0.024c-0.179,0.556-0.599,0.95-1.224,0.923
		c-1.63,0-1.672-2.322-1.672-3.493c0-1.1-0.024-3.587,1.646-3.587c0.677,0,0.979,0.38,1.25,0.924l0.024-0.027V8.617h1.293V15.536z
		 M166.938,9.652c-0.884,0-0.804,1.875-0.804,2.363c0,0.518-0.08,2.434,0.845,2.434c0.921,0,0.784-1.81,0.784-2.365
		C167.763,11.527,167.763,9.652,166.938,9.652"/>
	<path fill="#717070" d="M178.312,10.357c0,1.85-0.025,5.26-2.664,5.26c-2.634,0-2.661-3.41-2.661-5.26
		c0-1.848,0.027-5.258,2.661-5.258C178.287,5.099,178.312,8.509,178.312,10.357 M174.426,10.357c0,2.176,0.15,3.982,1.222,3.982
		c1.075,0,1.224-1.807,1.224-3.982c0-2.174-0.148-3.982-1.224-3.982C174.577,6.375,174.426,8.183,174.426,10.357"/>
	<path fill="#717070" d="M180.759,9.46h0.028c0.301-0.599,0.749-0.95,1.456-0.95v1.262l-0.22-0.013c-0.951,0-1.251,0.529-1.251,1.4
		v4.321h-1.29V8.617h1.276V9.46z"/>
	<path fill="#717070" d="M187.148,15.536c0,2.446-0.73,2.868-2.094,2.868c-1.235,0-2.022-0.707-2.022-1.985v-0.19h1.235
		c-0.026,0.489,0.177,1.032,0.818,1.032c0.854,0,0.772-0.829,0.772-1.452v-1.142h-0.024c-0.179,0.556-0.602,0.95-1.226,0.923
		c-1.632,0-1.673-2.322-1.673-3.493c0-1.1-0.024-3.587,1.646-3.587c0.678,0,0.978,0.38,1.252,0.924l0.024-0.027V8.617h1.29V15.536z
		 M185.042,9.652c-0.882,0-0.802,1.875-0.802,2.363c0,0.518-0.08,2.434,0.845,2.434c0.923,0,0.786-1.81,0.786-2.365
		C185.872,11.527,185.872,9.652,185.042,9.652"/>
	<path fill="#717070" d="M191.037,14.599h-0.026c-0.257,0.596-0.53,0.99-1.265,0.99c-1.589,0-1.616-2.514-1.616-3.629
		c0-1.142,0.04-3.45,1.658-3.45c0.598,0,0.989,0.366,1.223,0.868h0.026V8.617h1.278v6.864h-1.278V14.599z M191.079,12.042
		c0-0.545,0.052-2.392-0.803-2.392c-0.949,0-0.845,1.834-0.845,2.392c0,0.57-0.104,2.405,0.845,2.405
		C191.13,14.448,191.079,12.585,191.079,12.042"/>
	<path fill="#717070" d="M194.776,9.406h0.026c0.286-0.557,0.705-0.896,1.385-0.896c1.359,0,1.401,1.209,1.401,2.255v4.718h-1.277
		v-4.744c0-0.477-0.083-1.086-0.761-1.086c-0.842,0-0.774,0.963-0.774,1.549v4.281H193.5V8.617h1.276V9.406z"/>
	<path fill="#717070" d="M198.554,6.538c0-0.462,0.381-0.841,0.856-0.841c0.449,0,0.843,0.379,0.843,0.841
		c0,0.476-0.394,0.856-0.843,0.856C198.935,7.394,198.554,7.013,198.554,6.538 M200.037,15.482h-1.277V8.618h1.277V15.482z"/>
	<polygon fill="#717070" points="204.984,8.617 202.686,14.34 204.861,14.34 204.861,15.481 200.811,15.481 203.189,9.759 
		200.988,9.759 200.988,8.617 	"/>
	<path fill="#717070" d="M208.476,14.599h-0.025c-0.259,0.596-0.529,0.99-1.265,0.99c-1.591,0-1.618-2.514-1.618-3.629
		c0-1.142,0.041-3.45,1.659-3.45c0.6,0,0.991,0.366,1.224,0.868h0.025V8.617h1.279v6.864h-1.279V14.599z M208.518,12.042
		c0-0.545,0.055-2.392-0.804-2.392c-0.948,0-0.84,1.834-0.84,2.392c0,0.57-0.108,2.405,0.84,2.405
		C208.573,14.448,208.518,12.585,208.518,12.042"/>
	<polygon fill="#717070" points="212.475,6.673 212.475,8.617 213.152,8.617 213.152,9.623 212.475,9.623 212.475,15.482 
		211.197,15.482 211.197,9.623 210.501,9.623 210.501,8.617 211.197,8.617 211.197,6.673 	"/>
	<path fill="#717070" d="M213.725,6.538c0-0.462,0.381-0.841,0.856-0.841c0.447,0,0.843,0.379,0.843,0.841
		c0,0.476-0.396,0.856-0.843,0.856C214.106,7.394,213.725,7.013,213.725,6.538 M215.206,15.482h-1.278V8.618h1.278V15.482z"/>
	<path fill="#717070" d="M216.186,12.07c0-1.496,0.203-3.561,2.16-3.561c1.956,0,2.16,2.064,2.16,3.561
		c0,1.44-0.204,3.521-2.16,3.521C216.389,15.59,216.186,13.51,216.186,12.07 M219.201,12.07c0-0.543,0.126-2.392-0.854-2.392
		c-0.977,0-0.856,1.849-0.856,2.392c0,0.488-0.12,2.352,0.856,2.352C219.327,14.421,219.201,12.558,219.201,12.07"/>
	<path fill="#717070" d="M222.763,9.406h0.029c0.286-0.557,0.707-0.896,1.386-0.896c1.358,0,1.4,1.209,1.4,2.255v4.718h-1.28v-4.744
		c0-0.477-0.081-1.086-0.758-1.086c-0.845,0-0.777,0.963-0.777,1.549v4.281h-1.276V8.617h1.276V9.406z"/>
	<path fill="#717070" d="M229.342,12.07c0-1.496,0.204-3.561,2.162-3.561c1.954,0,2.161,2.064,2.161,3.561
		c0,1.44-0.207,3.521-2.161,3.521C229.546,15.59,229.342,13.51,229.342,12.07 M232.361,12.07c0-0.543,0.122-2.392-0.856-2.392
		c-0.979,0-0.857,1.849-0.857,2.392c0,0.488-0.122,2.352,0.857,2.352C232.483,14.421,232.361,12.558,232.361,12.07"/>
	<path fill="#717070" d="M234.97,8.617V6.402c0-1.168,0.097-2.31,1.549-2.31c0.327,0,0.571,0.067,0.856,0.19v1.332
		c-0.175-0.096-0.325-0.164-0.529-0.164c-0.653,0-0.597,0.639-0.597,1.101v2.065h1.06v1.006h-1.06v5.858h-1.279V9.623h-0.637V8.617
		H234.97z"/>
	<path fill="#717070" d="M243.506,12.941c0,1.453-0.23,2.676-2.012,2.676c-0.377,0-0.827-0.082-1.167-0.271v-1.386
		c0.271,0.162,0.571,0.353,0.896,0.353c0.909,0,0.923-0.748,0.923-1.44V5.234h1.359V12.941z"/>
	<path fill="#717070" d="M247.639,14.599h-0.026c-0.259,0.596-0.529,0.99-1.266,0.99c-1.589,0-1.616-2.514-1.616-3.629
		c0-1.142,0.04-3.45,1.658-3.45c0.598,0,0.992,0.366,1.224,0.868h0.026V8.617h1.278v6.864h-1.278V14.599z M247.679,12.042
		c0-0.545,0.053-2.392-0.801-2.392c-0.952,0-0.842,1.834-0.842,2.392c0,0.57-0.11,2.405,0.842,2.405
		C247.732,14.448,247.679,12.585,247.679,12.042"/>
	<path fill="#717070" d="M251.364,9.5h0.027c0.243-0.583,0.56-0.99,1.264-0.99c1.59,0,1.616,2.5,1.616,3.615
		c0,1.155-0.04,3.465-1.658,3.465c-0.662,0-0.965-0.326-1.222-0.884h-0.027v3.589h-1.278V8.618h1.278V9.5z M252.966,12.058
		c0-0.561,0.112-2.406-0.841-2.406c-0.855,0-0.799,1.846-0.799,2.406c0,0.541-0.057,2.391,0.799,2.391
		C252.927,14.449,252.966,13.199,252.966,12.058"/>
	<path fill="#717070" d="M257.969,14.599h-0.028c-0.255,0.596-0.528,0.99-1.262,0.99c-1.591,0-1.616-2.514-1.616-3.629
		c0-1.142,0.039-3.45,1.658-3.45c0.598,0,0.989,0.366,1.22,0.868h0.028V8.617h1.28v6.864h-1.28V14.599z M258.011,12.042
		c0-0.545,0.053-2.392-0.803-2.392c-0.95,0-0.844,1.834-0.844,2.392c0,0.57-0.106,2.405,0.844,2.405
		C258.064,14.448,258.011,12.585,258.011,12.042"/>
	<path fill="#717070" d="M261.709,9.406h0.025c0.286-0.557,0.709-0.896,1.386-0.896c1.359,0,1.403,1.209,1.403,2.255v4.718h-1.279
		v-4.744c0-0.477-0.083-1.086-0.762-1.086c-0.843,0-0.773,0.963-0.773,1.549v4.281h-1.278V8.617h1.278V9.406z"/>
	<path fill="#0079C4" d="M35.312,46.431c-7.466,4.244-15.692,5.918-23.655,5.305c8.961,6.947,21.57,8.248,32.04,2.295
		c13.115-7.453,18.173-23.607,12.062-37.082C53.82,28.932,46.687,39.966,35.312,46.431"/>
	<path fill="#FFFFFF" d="M11.372,51.796c0.032-0.027,0.066-0.055,0.101-0.08c0.029,0,0.056,0.006,0.085,0.01
		C11.495,51.751,11.431,51.771,11.372,51.796"/>
	<path fill="#FFFFFF" d="M11.657,51.735c-0.032-0.004-0.066-0.008-0.101-0.01l0.062-0.025L11.657,51.735"/>
	<g>
		<defs>
			<path id="SVGID_1_" d="M47.089,10.603c-0.001,14.439-7.549,28.466-20.998,36.109c-4.557,2.592-9.398,4.18-14.289,4.918
				c-0.062,0.025-0.127,0.047-0.184,0.07l0.036,0.035c1.062,0.082,2.122,0.123,3.188,0.123h0.001h0.004
				c6.947,0,13.992-1.748,20.465-5.426c11.375-6.467,18.508-17.5,20.446-29.484c-0.363-0.805-0.754-1.6-1.198-2.381
				c-2.018-3.553-4.685-6.508-7.755-8.816C46.997,7.369,47.09,8.989,47.089,10.603"/>
		</defs>
		<clipPath id="SVGID_2_">
			<use xlink:href="#SVGID_1_"  overflow="visible"/>
		</clipPath>
		
			<linearGradient id="SVGID_3_" gradientUnits="userSpaceOnUse" x1="-140.6733" y1="457.9961" x2="-139.6733" y2="457.9961" gradientTransform="matrix(48.4039 -27.5091 27.5091 48.4039 -5782.7095 -25994.7188)">
			<stop  offset="0" style="stop-color:#FFFFFF"/>
			<stop  offset="1" style="stop-color:#BED3EE"/>
		</linearGradient>
		<polygon clip-path="url(#SVGID_2_)" fill="url(#SVGID_3_)" points="22.392,70.819 75.564,40.601 44.98,-13.21 -8.189,17.007 		"/>
	</g>
	<g>
		<defs>
			<path id="SVGID_4_" d="M37.669,13.2c0,14.437-7.543,28.463-20.991,36.106c-1.593,0.906-3.225,1.652-4.876,2.324
				c4.891-0.738,9.732-2.326,14.289-4.918c13.449-7.643,20.997-21.669,20.998-36.109c0.001-1.614-0.093-3.234-0.284-4.852
				c-3.308-2.488-7.1-4.199-11.084-5.091C37.035,4.778,37.669,9.007,37.669,13.2"/>
		</defs>
		<clipPath id="SVGID_5_">
			<use xlink:href="#SVGID_4_"  overflow="visible"/>
		</clipPath>
		
			<linearGradient id="SVGID_6_" gradientUnits="userSpaceOnUse" x1="-140.6738" y1="457.9873" x2="-139.6743" y2="457.9873" gradientTransform="matrix(46.156 -26.2315 26.2315 46.156 -5515.5942 -24788.9062)">
			<stop  offset="0" style="stop-color:#FFFFFF"/>
			<stop  offset="1" style="stop-color:#539BD5"/>
		</linearGradient>
		<polygon clip-path="url(#SVGID_5_)" fill="url(#SVGID_6_)" points="20.417,66.788 68.984,39.187 38.475,-14.499 -10.094,13.104 		
			"/>
	</g>
	<g>
		<defs>
			<path id="SVGID_7_" d="M23.175,0.597c2.92,5.885,4.313,12.162,4.313,18.362c0.001,12.5-5.661,24.684-15.932,32.692l0.021,0.018
				c0.072-0.014,0.148-0.025,0.224-0.039c1.651-0.672,3.283-1.418,4.876-2.324C30.126,41.663,37.669,27.636,37.669,13.2
				c0-4.192-0.635-8.422-1.948-12.539c-2.113-0.476-4.281-0.724-6.462-0.724C27.232-0.063,25.193,0.152,23.175,0.597"/>
		</defs>
		<clipPath id="SVGID_8_">
			<use xlink:href="#SVGID_7_"  overflow="visible"/>
		</clipPath>
		
			<linearGradient id="SVGID_9_" gradientUnits="userSpaceOnUse" x1="-140.6729" y1="457.9932" x2="-139.6729" y2="457.9932" gradientTransform="matrix(40.1873 -22.8394 22.8394 40.1873 -4803.5317 -21580.6406)">
			<stop  offset="0" style="stop-color:#FFFFFF"/>
			<stop  offset="1" style="stop-color:#0079C4"/>
		</linearGradient>
		<polygon clip-path="url(#SVGID_8_)" fill="url(#SVGID_9_)" points="17.931,62.886 59.892,39.04 31.294,-11.28 -10.667,12.568 		
			"/>
	</g>
	<path fill="#0079C4" d="M4.235,43.169c1.926,3.385,4.434,6.221,7.319,8.482c15.363-11.98,20.425-33.304,11.621-51.054
		c-2.763,0.609-5.485,1.637-8.08,3.108C1.201,11.605-3.663,29.273,4.235,43.169"/>
	<g>
		<defs>
			<rect id="SVGID_10_" x="65.167" y="23.597" width="236.832" height="0.904"/>
		</defs>
		<clipPath id="SVGID_11_">
			<use xlink:href="#SVGID_10_"  overflow="visible"/>
		</clipPath>
		
			<linearGradient id="SVGID_12_" gradientUnits="userSpaceOnUse" x1="-140.5273" y1="458" x2="-139.666" y2="458" gradientTransform="matrix(-275 0 0 275 -38342.957 -125926.0156)">
			<stop  offset="0" style="stop-color:#FFFFFF"/>
			<stop  offset="0.15" style="stop-color:#DEDEDE"/>
			<stop  offset="1" style="stop-color:#717070"/>
		</linearGradient>
		<rect x="65.167" y="23.597" clip-path="url(#SVGID_11_)" fill="url(#SVGID_12_)" width="236.832" height="1"/>
	</g>
</g>
</svg>
